<svg xmlns="http://www.w3.org/2000/svg" xmlns:xlink="http://www.w3.org/1999/xlink" width="2040" zoomAndPan="magnify" viewBox="0 0 1530 1529.999932" height="2040" preserveAspectRatio="xMidYMid meet" version="1.0"><path fill="#1c6264" d="M 1196.226562 1151.355469 L 1291.4375 1288.261719 L 1289.734375 1289.796875 L 1157.59375 1190.347656 C 1145.09375 1201.921875 1132.09375 1212.910156 1118.597656 1223.304688 C 1105.101562 1233.699219 1091.160156 1243.464844 1076.777344 1252.59375 C 1062.394531 1261.726562 1047.628906 1270.1875 1032.480469 1277.980469 C 1017.328125 1285.773438 1001.859375 1292.863281 986.066406 1299.253906 C 970.46875 1305.65625 954.628906 1311.375 938.535156 1316.398438 C 922.445312 1321.425781 906.164062 1325.742188 889.699219 1329.351562 C 873.230469 1332.960938 856.636719 1335.847656 839.917969 1338.011719 C 823.199219 1340.175781 806.417969 1341.609375 789.574219 1342.3125 L 766.96875 1513.777344 L 765.21875 1513.9375 C 757.671875 1456.964844 750.128906 1399.992188 742.511719 1342.472656 C 603.03125 1334.742188 481.316406 1283.226562 374.351562 1190.414062 L 242.574219 1289.09375 L 240.90625 1287.871094 L 336.859375 1150.976562 C 325.492188 1138.320312 314.6875 1125.199219 304.441406 1111.617188 C 294.195312 1098.035156 284.546875 1084.039062 275.5 1069.632812 C 266.449219 1055.226562 258.03125 1040.460938 250.246094 1025.332031 C 242.460938 1010.207031 235.332031 994.773438 228.867188 979.039062 C 202.785156 915.671875 187.890625 849.773438 184.886719 781.167969 L 15.40625 760.417969 C 15.40625 760.0625 15.40625 759.710938 15.40625 759.359375 C 38.945312 756.199219 62.480469 752.917969 86.050781 749.90625 C 112.195312 746.550781 138.378906 743.417969 164.542969 740.210938 C 166 740.035156 167.425781 739.542969 168.878906 739.421875 C 188.25 737.828125 185.089844 738.941406 186.25 720.886719 C 193.597656 606.46875 229.070312 502.089844 296.746094 409.097656 C 302.789062 400.757812 309.230469 392.757812 315.710938 384.769531 C 321.996094 377.011719 328.566406 369.476562 335.394531 361.386719 L 241.109375 225.230469 L 242.339844 224.183594 L 373.292969 324.746094 C 477.757812 228.828125 602.324219 180.410156 744.957031 173.996094 C 751.753906 121.136719 758.550781 68.46875 765.347656 15.988281 L 767.007812 16.128906 C 773.921875 68.246094 780.835938 120.371094 787.90625 173.636719 C 927.925781 181.929688 1053.558594 227.050781 1157.957031 323.632812 L 1289.222656 224.464844 L 1291.078125 225.925781 C 1259.453125 270.972656 1227.839844 316.023438 1195.9375 361.476562 C 1293.164062 467.574219 1340.050781 594.910156 1348.246094 738.144531 L 1514.398438 759.191406 L 1514.546875 760.277344 C 1495.066406 762.6875 1475.601562 765.101562 1456.15625 767.523438 C 1429.972656 770.796875 1403.808594 774.125 1377.625 777.359375 C 1369.777344 778.332031 1361.871094 779.324219 1354.011719 779.804688 C 1349.28125 780.09375 1347.523438 781.660156 1347.289062 786.65625 C 1341.496094 912.917969 1296.621094 1024.324219 1218.894531 1123.164062 C 1211.257812 1132.894531 1203.390625 1142.429688 1196.226562 1151.355469 Z M 789.4375 205.324219 C 791.652344 223.339844 793.894531 241.304688 796.054688 259.273438 C 799.316406 286.34375 802.542969 313.425781 805.738281 340.511719 C 808.933594 367.601562 812.1875 394.675781 815.5 421.742188 C 818.660156 448.238281 821.707031 474.746094 824.90625 501.246094 C 828.78125 533.25 832.652344 565.269531 836.890625 597.226562 C 837.296875 600.296875 839.597656 604.464844 842.171875 605.671875 C 870.265625 618.769531 892.59375 639.039062 907.625 665.304688 C 917.320312 682.265625 927.785156 689.855469 947.5625 690.921875 C 979.402344 692.636719 1011.023438 698.261719 1042.742188 702.136719 C 1069.507812 705.410156 1096.285156 708.542969 1123.058594 711.710938 C 1151.015625 715.027344 1178.96875 718.324219 1206.929688 721.589844 C 1230.515625 724.351562 1254.105469 727.085938 1277.703125 729.785156 C 1290.679688 731.238281 1303.65625 732.472656 1316.734375 733.816406 C 1308.324219 444.160156 1076.671875 214.859375 789.4375 205.324219 Z M 215.527344 733.621094 C 233.046875 731.769531 249.960938 730.0625 266.847656 728.117188 C 295.109375 724.855469 323.355469 721.5 351.589844 718.058594 C 377.789062 714.898438 403.972656 711.636719 430.164062 708.421875 C 461.597656 704.570312 493.023438 700.722656 524.445312 696.871094 C 551.507812 693.535156 578.597656 690.328125 605.597656 686.558594 C 608.796875 686.101562 612.621094 683.007812 614.320312 680.070312 C 618.523438 672.734375 623.191406 665.707031 628.324219 658.988281 C 633.457031 652.269531 639.011719 645.917969 644.984375 639.933594 C 650.957031 633.949219 657.296875 628.382812 664.003906 623.234375 C 670.710938 618.085938 677.730469 613.402344 685.054688 609.183594 C 692.246094 605.003906 696.09375 601.027344 695.660156 592.371094 C 695.34375 586.050781 697.226562 579.617188 698.023438 573.222656 C 701.285156 547.050781 704.515625 520.875 707.714844 494.703125 C 710.332031 473.160156 712.796875 451.601562 715.425781 430.074219 C 718.691406 403.304688 722.101562 376.558594 725.363281 349.800781 C 728.699219 322.453125 731.976562 295.089844 735.195312 267.71875 C 737.664062 246.910156 740.042969 226.105469 742.480469 205.183594 C 453.207031 216.789062 224.59375 444.539062 215.527344 733.601562 Z M 791.769531 1312.152344 C 938.210938 1302.886719 1063.335938 1248.148438 1162.691406 1142.597656 C 1256.507812 1042.964844 1310.394531 923.808594 1317.714844 784.21875 L 1260.59375 790.519531 C 1237.285156 793.085938 1213.957031 795.535156 1190.664062 798.242188 C 1163.292969 801.429688 1135.980469 804.988281 1108.609375 808.140625 C 1080.351562 811.394531 1052.074219 814.15625 1023.777344 817.480469 C 991.753906 821.246094 959.824219 825.574219 927.746094 829.195312 C 922.621094 829.78125 920.242188 831.707031 917.8125 835.980469 C 901.386719 864.789062 880.320312 889.421875 850.644531 905.1875 C 841.847656 909.824219 836.492188 913.917969 835.683594 925.273438 C 833.609375 954.488281 829.4375 983.554688 826.109375 1012.683594 C 822.921875 1040.644531 819.816406 1068.617188 816.5625 1096.570312 C 813.339844 1124.226562 809.929688 1151.867188 806.703125 1179.53125 C 803.921875 1203.410156 801.28125 1227.300781 798.59375 1251.195312 C 796.367188 1270.972656 794.164062 1290.773438 791.769531 1312.136719 Z M 214 784.996094 C 227.226562 942.828125 289.15625 1075.335938 408.238281 1178.476562 C 502.773438 1260.371094 613.808594 1304.246094 739.703125 1312.015625 C 739.378906 1307.378906 739.273438 1304.203125 738.90625 1301.03125 C 735.605469 1272.476562 732.203125 1243.9375 728.960938 1215.375 C 725.179688 1182.15625 721.617188 1148.910156 717.835938 1115.703125 C 714.054688 1082.492188 709.859375 1049.332031 706.058594 1016.121094 C 702.292969 983.210938 698.894531 950.25 695 917.347656 C 694.695312 915.871094 694.105469 914.515625 693.230469 913.285156 C 692.355469 912.054688 691.265625 911.054688 689.96875 910.285156 C 657.054688 893.242188 632.375 868.246094 615.5625 835.210938 C 614.664062 833.726562 613.503906 832.480469 612.085938 831.480469 C 610.667969 830.476562 609.105469 829.804688 607.40625 829.457031 C 590.269531 827.074219 573.039062 825.398438 555.835938 823.449219 C 526.398438 820.132812 496.964844 816.800781 467.535156 813.449219 C 443.652344 810.71875 419.773438 807.9375 395.890625 805.109375 C 374.332031 802.597656 352.773438 800.019531 331.214844 797.5625 C 306.734375 794.785156 282.25 792.058594 257.765625 789.390625 C 243.777344 787.90625 229.8125 786.589844 214 784.996094 Z M 767.21875 624.375 C 685.890625 621.9375 630.464844 690.5625 632.207031 759.695312 C 633.894531 826.683594 683.785156 890.980469 766.152344 891.109375 C 852.496094 891.238281 898.109375 822.71875 899.257812 760.167969 C 900.722656 679.835938 837.445312 622.140625 767.21875 624.375 Z M 292.066406 758.320312 C 292.066406 758.582031 292.066406 758.851562 292.066406 759.117188 L 596.710938 791.148438 L 596.710938 725.140625 Z M 935.015625 725.296875 L 935.015625 790.945312 L 1243.4375 758.5625 Z M 797.710938 927.414062 L 733.378906 927.414062 C 743.886719 1027.730469 754.390625 1128.039062 764.894531 1228.339844 L 767.441406 1228.136719 Z M 766.550781 298.710938 C 755.726562 395.855469 745.023438 491.1875 734.464844 585.539062 C 745.226562 585.539062 755.402344 585.199219 765.542969 585.632812 C 776.023438 586.078125 786.46875 587.28125 797.777344 588.226562 C 787.453125 492.503906 777.089844 396.429688 766.550781 298.710938 Z M 766.550781 298.710938 " fill-opacity="1" fill-rule="nonzero"/><path fill="#1c6264" d="M 1124.746094 392.285156 L 933.957031 662.921875 C 922.207031 648.574219 911.714844 633.46875 898.894531 620.796875 C 886.289062 608.378906 871.238281 598.433594 857.1875 587.367188 L 1123.746094 391.210938 Z M 1124.746094 392.285156 " fill-opacity="1" fill-rule="nonzero"/><path fill="#1c6264" d="M 974.042969 313.226562 C 968.613281 332.558594 963.605469 352.042969 957.546875 371.179688 C 954.671875 380.265625 949.203125 382.554688 943.125 379.429688 C 936.746094 376.121094 935.523438 370.839844 940.128906 362.960938 C 950.160156 345.839844 960.519531 328.898438 970.714844 311.882812 Z M 974.042969 313.226562 " fill-opacity="1" fill-rule="nonzero"/><path fill="#1c6264" d="M 1209.359375 550.5625 C 1193.183594 560.414062 1177.132812 570.46875 1160.78125 580.027344 C 1153.738281 584.148438 1148.160156 582.378906 1145.359375 576.085938 C 1142.164062 568.921875 1146.210938 564.203125 1152.125 562.34375 C 1164.851562 558.308594 1177.902344 555.269531 1190.894531 552.148438 C 1196.78125 550.71875 1202.84375 549.96875 1208.820312 548.910156 C 1208.996094 549.441406 1209.183594 549.96875 1209.359375 550.5625 Z M 1209.359375 550.5625 " fill-opacity="1" fill-rule="nonzero"/><path fill="#1c6264" d="M 675.757812 589.035156 C 643.496094 609.332031 617.832031 633.847656 598.257812 665.339844 C 533.628906 573.195312 469.621094 481.929688 405.621094 390.664062 L 406.382812 389.738281 Z M 675.757812 589.035156 " fill-opacity="1" fill-rule="nonzero"/><path fill="#1c6264" d="M 560.886719 311.640625 C 566.957031 321.132812 573.214844 330.511719 579.042969 340.152344 C 584.03125 348.417969 588.570312 356.953125 593.242188 365.417969 C 596.671875 371.636719 594.050781 376.410156 588.777344 379.570312 C 583.5 382.730469 578.582031 380.191406 576.273438 375.230469 C 567.003906 355.332031 562.933594 333.960938 558.664062 312.6875 Z M 560.886719 311.640625 " fill-opacity="1" fill-rule="nonzero"/><path fill="#1c6264" d="M 323.078125 547.773438 C 340.53125 552.089844 358 556.363281 375.425781 560.746094 C 378.007812 561.324219 380.402344 562.34375 382.609375 563.804688 C 387.105469 567.023438 389.21875 571.222656 386.132812 576.671875 C 383.210938 581.769531 378.484375 583.882812 373.535156 581.027344 C 356.203125 571.035156 339.1875 560.480469 322.050781 550.144531 Z M 323.078125 547.773438 " fill-opacity="1" fill-rule="nonzero"/><path fill="#1c6264" d="M 856.492188 927.683594 C 907.757812 889.359375 907.757812 889.359375 933.652344 851.820312 L 1127.304688 1125.535156 Z M 856.492188 927.683594 " fill-opacity="1" fill-rule="nonzero"/><path fill="#1c6264" d="M 970.625 1200.164062 C 960.328125 1183.203125 949.878906 1166.34375 939.816406 1149.253906 C 935.71875 1142.3125 937.351562 1135.980469 943.4375 1133.757812 C 950.074219 1131.328125 954.5625 1134.820312 956.414062 1140.773438 C 962.410156 1160.234375 967.953125 1179.753906 973.671875 1199.265625 Z M 970.625 1200.164062 " fill-opacity="1" fill-rule="nonzero"/><path fill="#1c6264" d="M 1205.984375 961.789062 C 1187.585938 956.554688 1169.085938 951.640625 1150.855469 945.875 C 1145.628906 944.21875 1141.949219 939.628906 1145.703125 933.355469 C 1149.050781 927.792969 1153.238281 924.390625 1160.050781 928.722656 C 1175.722656 938.75 1191.480469 948.628906 1207.207031 958.574219 Z M 1205.984375 961.789062 " fill-opacity="1" fill-rule="nonzero"/><path fill="#1c6264" d="M 598.507812 849.734375 C 617.117188 883.101562 643.058594 907.609375 675.433594 927.035156 C 585.660156 992.996094 497.140625 1058.117188 408.53125 1123.21875 L 406.679688 1121.597656 Z M 598.507812 849.734375 " fill-opacity="1" fill-rule="nonzero"/><path fill="#1c6264" d="M 322.542969 959.011719 C 338.425781 949.214844 354.265625 939.332031 370.21875 929.648438 C 378.066406 924.894531 382.636719 925.941406 386.222656 932.707031 C 390.507812 940.722656 384.863281 945.035156 379.21875 946.785156 C 360.765625 952.484375 341.976562 957.074219 323.308594 962.085938 C 323.058594 961.066406 322.800781 960.039062 322.542969 959.011719 Z M 322.542969 959.011719 " fill-opacity="1" fill-rule="nonzero"/><path fill="#1c6264" d="M 558.617188 1198.160156 C 564.175781 1179.515625 569.433594 1160.78125 575.382812 1142.265625 C 578.164062 1133.757812 583.574219 1130.800781 588.921875 1133.996094 C 595.484375 1137.9375 595.867188 1143.394531 591.890625 1149.753906 C 581.535156 1166.316406 571.378906 1182.988281 561.136719 1199.617188 Z M 558.617188 1198.160156 " fill-opacity="1" fill-rule="nonzero"/><path fill="#1c6264" d="M 766.210938 644.109375 C 775.367188 671.738281 781.25 699.117188 800.695312 719.671875 C 820.140625 740.230469 847.519531 747.191406 874.140625 756.800781 C 861.238281 762.363281 849.691406 767.617188 837.871094 772.234375 C 806.074219 784.652344 786.441406 807.878906 776.609375 840.050781 C 773.476562 850.300781 770.316406 860.542969 766.0625 871.628906 C 756.792969 809.324219 719.089844 774.234375 659.742188 759.128906 C 685.824219 748.628906 712.265625 740.082031 731.472656 719.578125 C 750.675781 699.078125 756.699219 671.53125 766.210938 644.109375 Z M 766.210938 644.109375 " fill-opacity="1" fill-rule="nonzero"/></svg>